<mxfile host="Electron" modified="2024-06-13T18:33:15.638Z" agent="Mozilla/5.0 (Windows NT 10.0; Win64; x64) AppleWebKit/537.36 (KHTML, like Gecko) draw.io/24.5.3 Chrome/124.0.6367.207 Electron/30.0.6 Safari/537.36" etag="gTstD-fLq1AbyQwPxIz0" version="24.5.3" type="device">
  <diagram id="C5RBs43oDa-KdzZeNtuy" name="Page-1">
    <mxGraphModel dx="1434" dy="836" grid="1" gridSize="10" guides="1" tooltips="1" connect="1" arrows="1" fold="1" page="1" pageScale="1" pageWidth="827" pageHeight="1169" math="0" shadow="0">
      <root>
        <mxCell id="WIyWlLk6GJQsqaUBKTNV-0" />
        <mxCell id="WIyWlLk6GJQsqaUBKTNV-1" parent="WIyWlLk6GJQsqaUBKTNV-0" />
        <mxCell id="jecWnk1McY2M2kDTLW4H-14" value="Animal" style="swimlane;fontStyle=1;align=center;verticalAlign=top;childLayout=stackLayout;horizontal=1;startSize=26;horizontalStack=0;resizeParent=1;resizeParentMax=0;resizeLast=0;collapsible=1;marginBottom=0;whiteSpace=wrap;html=1;" vertex="1" parent="WIyWlLk6GJQsqaUBKTNV-1">
          <mxGeometry x="271" y="90" width="286" height="164" as="geometry" />
        </mxCell>
        <mxCell id="jecWnk1McY2M2kDTLW4H-15" value="+ name: String" style="text;strokeColor=none;fillColor=none;align=left;verticalAlign=top;spacingLeft=4;spacingRight=4;overflow=hidden;rotatable=0;points=[[0,0.5],[1,0.5]];portConstraint=eastwest;whiteSpace=wrap;html=1;" vertex="1" parent="jecWnk1McY2M2kDTLW4H-14">
          <mxGeometry y="26" width="286" height="26" as="geometry" />
        </mxCell>
        <mxCell id="jecWnk1McY2M2kDTLW4H-18" value="+ commands: ArrayList" style="text;strokeColor=none;fillColor=none;align=left;verticalAlign=top;spacingLeft=4;spacingRight=4;overflow=hidden;rotatable=0;points=[[0,0.5],[1,0.5]];portConstraint=eastwest;whiteSpace=wrap;html=1;" vertex="1" parent="jecWnk1McY2M2kDTLW4H-14">
          <mxGeometry y="52" width="286" height="26" as="geometry" />
        </mxCell>
        <mxCell id="jecWnk1McY2M2kDTLW4H-19" value="+ birthDate: String" style="text;strokeColor=none;fillColor=none;align=left;verticalAlign=top;spacingLeft=4;spacingRight=4;overflow=hidden;rotatable=0;points=[[0,0.5],[1,0.5]];portConstraint=eastwest;whiteSpace=wrap;html=1;" vertex="1" parent="jecWnk1McY2M2kDTLW4H-14">
          <mxGeometry y="78" width="286" height="26" as="geometry" />
        </mxCell>
        <mxCell id="jecWnk1McY2M2kDTLW4H-16" value="" style="line;strokeWidth=1;fillColor=none;align=left;verticalAlign=middle;spacingTop=-1;spacingLeft=3;spacingRight=3;rotatable=0;labelPosition=right;points=[];portConstraint=eastwest;strokeColor=inherit;" vertex="1" parent="jecWnk1McY2M2kDTLW4H-14">
          <mxGeometry y="104" width="286" height="8" as="geometry" />
        </mxCell>
        <mxCell id="jecWnk1McY2M2kDTLW4H-17" value="+ AddCommand(Command: String): Boolean" style="text;strokeColor=none;fillColor=none;align=left;verticalAlign=top;spacingLeft=4;spacingRight=4;overflow=hidden;rotatable=0;points=[[0,0.5],[1,0.5]];portConstraint=eastwest;whiteSpace=wrap;html=1;" vertex="1" parent="jecWnk1McY2M2kDTLW4H-14">
          <mxGeometry y="112" width="286" height="26" as="geometry" />
        </mxCell>
        <mxCell id="jecWnk1McY2M2kDTLW4H-20" value="+ GetCommand(Command: String): String" style="text;strokeColor=none;fillColor=none;align=left;verticalAlign=top;spacingLeft=4;spacingRight=4;overflow=hidden;rotatable=0;points=[[0,0.5],[1,0.5]];portConstraint=eastwest;whiteSpace=wrap;html=1;" vertex="1" parent="jecWnk1McY2M2kDTLW4H-14">
          <mxGeometry y="138" width="286" height="26" as="geometry" />
        </mxCell>
        <mxCell id="jecWnk1McY2M2kDTLW4H-27" value="Pet" style="swimlane;fontStyle=1;align=center;verticalAlign=top;childLayout=stackLayout;horizontal=1;startSize=26;horizontalStack=0;resizeParent=1;resizeParentMax=0;resizeLast=0;collapsible=1;marginBottom=0;whiteSpace=wrap;html=1;" vertex="1" parent="WIyWlLk6GJQsqaUBKTNV-1">
          <mxGeometry x="160" y="320" width="160" height="34" as="geometry" />
        </mxCell>
        <mxCell id="jecWnk1McY2M2kDTLW4H-31" value="Extends" style="endArrow=block;endSize=16;endFill=0;html=1;rounded=0;" edge="1" parent="jecWnk1McY2M2kDTLW4H-27" target="jecWnk1McY2M2kDTLW4H-14">
          <mxGeometry width="160" relative="1" as="geometry">
            <mxPoint x="80" as="sourcePoint" />
            <mxPoint x="240" as="targetPoint" />
          </mxGeometry>
        </mxCell>
        <mxCell id="jecWnk1McY2M2kDTLW4H-29" value="" style="line;strokeWidth=1;fillColor=none;align=left;verticalAlign=middle;spacingTop=-1;spacingLeft=3;spacingRight=3;rotatable=0;labelPosition=right;points=[];portConstraint=eastwest;strokeColor=inherit;" vertex="1" parent="jecWnk1McY2M2kDTLW4H-27">
          <mxGeometry y="26" width="160" height="8" as="geometry" />
        </mxCell>
        <mxCell id="jecWnk1McY2M2kDTLW4H-32" value="PackAnimal" style="swimlane;fontStyle=1;align=center;verticalAlign=top;childLayout=stackLayout;horizontal=1;startSize=26;horizontalStack=0;resizeParent=1;resizeParentMax=0;resizeLast=0;collapsible=1;marginBottom=0;whiteSpace=wrap;html=1;" vertex="1" parent="WIyWlLk6GJQsqaUBKTNV-1">
          <mxGeometry x="520" y="320" width="160" height="34" as="geometry" />
        </mxCell>
        <mxCell id="jecWnk1McY2M2kDTLW4H-33" value="Extends" style="endArrow=block;endSize=16;endFill=0;html=1;rounded=0;" edge="1" parent="jecWnk1McY2M2kDTLW4H-32" target="jecWnk1McY2M2kDTLW4H-14">
          <mxGeometry width="160" relative="1" as="geometry">
            <mxPoint x="80" as="sourcePoint" />
            <mxPoint x="240" as="targetPoint" />
          </mxGeometry>
        </mxCell>
        <mxCell id="jecWnk1McY2M2kDTLW4H-34" value="" style="line;strokeWidth=1;fillColor=none;align=left;verticalAlign=middle;spacingTop=-1;spacingLeft=3;spacingRight=3;rotatable=0;labelPosition=right;points=[];portConstraint=eastwest;strokeColor=inherit;" vertex="1" parent="jecWnk1McY2M2kDTLW4H-32">
          <mxGeometry y="26" width="160" height="8" as="geometry" />
        </mxCell>
        <mxCell id="jecWnk1McY2M2kDTLW4H-35" value="Dog" style="swimlane;fontStyle=1;align=center;verticalAlign=top;childLayout=stackLayout;horizontal=1;startSize=26;horizontalStack=0;resizeParent=1;resizeParentMax=0;resizeLast=0;collapsible=1;marginBottom=0;whiteSpace=wrap;html=1;" vertex="1" parent="WIyWlLk6GJQsqaUBKTNV-1">
          <mxGeometry x="110" y="400" width="80" height="34" as="geometry" />
        </mxCell>
        <mxCell id="jecWnk1McY2M2kDTLW4H-37" value="" style="line;strokeWidth=1;fillColor=none;align=left;verticalAlign=middle;spacingTop=-1;spacingLeft=3;spacingRight=3;rotatable=0;labelPosition=right;points=[];portConstraint=eastwest;strokeColor=inherit;" vertex="1" parent="jecWnk1McY2M2kDTLW4H-35">
          <mxGeometry y="26" width="80" height="8" as="geometry" />
        </mxCell>
        <mxCell id="jecWnk1McY2M2kDTLW4H-39" value="Cat" style="swimlane;fontStyle=1;align=center;verticalAlign=top;childLayout=stackLayout;horizontal=1;startSize=26;horizontalStack=0;resizeParent=1;resizeParentMax=0;resizeLast=0;collapsible=1;marginBottom=0;whiteSpace=wrap;html=1;" vertex="1" parent="WIyWlLk6GJQsqaUBKTNV-1">
          <mxGeometry x="200" y="400" width="70" height="34" as="geometry" />
        </mxCell>
        <mxCell id="jecWnk1McY2M2kDTLW4H-40" value="" style="line;strokeWidth=1;fillColor=none;align=left;verticalAlign=middle;spacingTop=-1;spacingLeft=3;spacingRight=3;rotatable=0;labelPosition=right;points=[];portConstraint=eastwest;strokeColor=inherit;" vertex="1" parent="jecWnk1McY2M2kDTLW4H-39">
          <mxGeometry y="26" width="70" height="8" as="geometry" />
        </mxCell>
        <mxCell id="jecWnk1McY2M2kDTLW4H-41" value="Hamster" style="swimlane;fontStyle=1;align=center;verticalAlign=top;childLayout=stackLayout;horizontal=1;startSize=26;horizontalStack=0;resizeParent=1;resizeParentMax=0;resizeLast=0;collapsible=1;marginBottom=0;whiteSpace=wrap;html=1;" vertex="1" parent="WIyWlLk6GJQsqaUBKTNV-1">
          <mxGeometry x="280" y="400" width="80" height="34" as="geometry" />
        </mxCell>
        <mxCell id="jecWnk1McY2M2kDTLW4H-42" value="" style="line;strokeWidth=1;fillColor=none;align=left;verticalAlign=middle;spacingTop=-1;spacingLeft=3;spacingRight=3;rotatable=0;labelPosition=right;points=[];portConstraint=eastwest;strokeColor=inherit;" vertex="1" parent="jecWnk1McY2M2kDTLW4H-41">
          <mxGeometry y="26" width="80" height="8" as="geometry" />
        </mxCell>
        <mxCell id="jecWnk1McY2M2kDTLW4H-43" value="Extends" style="endArrow=block;endSize=16;endFill=0;html=1;rounded=0;" edge="1" parent="WIyWlLk6GJQsqaUBKTNV-1" source="jecWnk1McY2M2kDTLW4H-35" target="jecWnk1McY2M2kDTLW4H-27">
          <mxGeometry width="160" relative="1" as="geometry">
            <mxPoint x="240" y="350" as="sourcePoint" />
            <mxPoint x="400" y="350" as="targetPoint" />
          </mxGeometry>
        </mxCell>
        <mxCell id="jecWnk1McY2M2kDTLW4H-44" value="Extends" style="endArrow=block;endSize=16;endFill=0;html=1;rounded=0;" edge="1" parent="WIyWlLk6GJQsqaUBKTNV-1" source="jecWnk1McY2M2kDTLW4H-39" target="jecWnk1McY2M2kDTLW4H-27">
          <mxGeometry width="160" relative="1" as="geometry">
            <mxPoint x="230" y="500" as="sourcePoint" />
            <mxPoint x="390" y="500" as="targetPoint" />
          </mxGeometry>
        </mxCell>
        <mxCell id="jecWnk1McY2M2kDTLW4H-45" value="Extends" style="endArrow=block;endSize=16;endFill=0;html=1;rounded=0;" edge="1" parent="WIyWlLk6GJQsqaUBKTNV-1" source="jecWnk1McY2M2kDTLW4H-41" target="jecWnk1McY2M2kDTLW4H-27">
          <mxGeometry width="160" relative="1" as="geometry">
            <mxPoint x="280" y="480" as="sourcePoint" />
            <mxPoint x="440" y="480" as="targetPoint" />
          </mxGeometry>
        </mxCell>
        <mxCell id="jecWnk1McY2M2kDTLW4H-46" value="Horse" style="swimlane;fontStyle=1;align=center;verticalAlign=top;childLayout=stackLayout;horizontal=1;startSize=26;horizontalStack=0;resizeParent=1;resizeParentMax=0;resizeLast=0;collapsible=1;marginBottom=0;whiteSpace=wrap;html=1;" vertex="1" parent="WIyWlLk6GJQsqaUBKTNV-1">
          <mxGeometry x="440" y="400" width="80" height="34" as="geometry" />
        </mxCell>
        <mxCell id="jecWnk1McY2M2kDTLW4H-48" value="" style="line;strokeWidth=1;fillColor=none;align=left;verticalAlign=middle;spacingTop=-1;spacingLeft=3;spacingRight=3;rotatable=0;labelPosition=right;points=[];portConstraint=eastwest;strokeColor=inherit;" vertex="1" parent="jecWnk1McY2M2kDTLW4H-46">
          <mxGeometry y="26" width="80" height="8" as="geometry" />
        </mxCell>
        <mxCell id="jecWnk1McY2M2kDTLW4H-50" value="Camel" style="swimlane;fontStyle=1;align=center;verticalAlign=top;childLayout=stackLayout;horizontal=1;startSize=26;horizontalStack=0;resizeParent=1;resizeParentMax=0;resizeLast=0;collapsible=1;marginBottom=0;whiteSpace=wrap;html=1;" vertex="1" parent="WIyWlLk6GJQsqaUBKTNV-1">
          <mxGeometry x="557" y="400" width="80" height="34" as="geometry" />
        </mxCell>
        <mxCell id="jecWnk1McY2M2kDTLW4H-51" value="" style="line;strokeWidth=1;fillColor=none;align=left;verticalAlign=middle;spacingTop=-1;spacingLeft=3;spacingRight=3;rotatable=0;labelPosition=right;points=[];portConstraint=eastwest;strokeColor=inherit;" vertex="1" parent="jecWnk1McY2M2kDTLW4H-50">
          <mxGeometry y="26" width="80" height="8" as="geometry" />
        </mxCell>
        <mxCell id="jecWnk1McY2M2kDTLW4H-52" value="Donkey" style="swimlane;fontStyle=1;align=center;verticalAlign=top;childLayout=stackLayout;horizontal=1;startSize=26;horizontalStack=0;resizeParent=1;resizeParentMax=0;resizeLast=0;collapsible=1;marginBottom=0;whiteSpace=wrap;html=1;" vertex="1" parent="WIyWlLk6GJQsqaUBKTNV-1">
          <mxGeometry x="680" y="400" width="80" height="34" as="geometry" />
        </mxCell>
        <mxCell id="jecWnk1McY2M2kDTLW4H-53" value="" style="line;strokeWidth=1;fillColor=none;align=left;verticalAlign=middle;spacingTop=-1;spacingLeft=3;spacingRight=3;rotatable=0;labelPosition=right;points=[];portConstraint=eastwest;strokeColor=inherit;" vertex="1" parent="jecWnk1McY2M2kDTLW4H-52">
          <mxGeometry y="26" width="80" height="8" as="geometry" />
        </mxCell>
        <mxCell id="jecWnk1McY2M2kDTLW4H-54" value="Extends" style="endArrow=block;endSize=16;endFill=0;html=1;rounded=0;" edge="1" parent="WIyWlLk6GJQsqaUBKTNV-1" source="jecWnk1McY2M2kDTLW4H-46" target="jecWnk1McY2M2kDTLW4H-32">
          <mxGeometry width="160" relative="1" as="geometry">
            <mxPoint x="240" y="350" as="sourcePoint" />
            <mxPoint x="400" y="350" as="targetPoint" />
          </mxGeometry>
        </mxCell>
        <mxCell id="jecWnk1McY2M2kDTLW4H-55" value="Extends" style="endArrow=block;endSize=16;endFill=0;html=1;rounded=0;" edge="1" parent="WIyWlLk6GJQsqaUBKTNV-1" source="jecWnk1McY2M2kDTLW4H-50" target="jecWnk1McY2M2kDTLW4H-32">
          <mxGeometry width="160" relative="1" as="geometry">
            <mxPoint x="240" y="350" as="sourcePoint" />
            <mxPoint x="400" y="350" as="targetPoint" />
          </mxGeometry>
        </mxCell>
        <mxCell id="jecWnk1McY2M2kDTLW4H-56" value="Extends" style="endArrow=block;endSize=16;endFill=0;html=1;rounded=0;" edge="1" parent="WIyWlLk6GJQsqaUBKTNV-1" source="jecWnk1McY2M2kDTLW4H-52" target="jecWnk1McY2M2kDTLW4H-32">
          <mxGeometry width="160" relative="1" as="geometry">
            <mxPoint x="240" y="350" as="sourcePoint" />
            <mxPoint x="400" y="350" as="targetPoint" />
          </mxGeometry>
        </mxCell>
      </root>
    </mxGraphModel>
  </diagram>
</mxfile>
